<svg width="76" height="76" viewBox="0 0 76 76" fill="none" xmlns="http://www.w3.org/2000/svg">
<path d="M74.9376 37.6285C74.9376 17.1297 58.3201 0.512207 37.8214 0.512207C17.3226 0.512207 0.705078 17.1297 0.705078 37.6285C0.705078 58.1272 17.3226 74.7448 37.8214 74.7448C58.3201 74.7448 74.9376 58.1272 74.9376 37.6285Z" fill="#DBEBF0"/>
<path d="M54.5237 50.6193H21.119C20.0055 50.6193 19.2632 49.877 19.2632 48.7635C19.2632 47.65 20.0055 46.9077 21.119 46.9077H54.5237C55.6371 46.9077 56.3795 47.65 56.3795 48.7635C56.3795 49.877 55.6371 50.6193 54.5237 50.6193ZM54.5237 39.4844H21.119C20.0055 39.4844 19.2632 38.7421 19.2632 37.6286C19.2632 36.5151 20.0055 35.7728 21.119 35.7728H54.5237C55.6371 35.7728 56.3795 36.5151 56.3795 37.6286C56.3795 38.7421 55.6371 39.4844 54.5237 39.4844ZM54.5237 28.3496H21.119C20.0055 28.3496 19.2632 27.6072 19.2632 26.4938C19.2632 25.3803 20.0055 24.6379 21.119 24.6379H54.5237C55.6371 24.6379 56.3795 25.3803 56.3795 26.4938C56.3795 27.6072 55.6371 28.3496 54.5237 28.3496Z" fill="black"/>
</svg>
