<svg width="670" height="156" viewBox="0 0 670 156" fill="none" xmlns="http://www.w3.org/2000/svg">
<path d="M155.983 46.8182C155.46 46.8182 154.943 46.7614 154.432 46.6477C153.92 46.5341 153.46 46.3864 153.051 46.2045L153.665 44.3807C154.733 44.7898 155.699 44.9375 156.562 44.8239C157.438 44.7102 158.21 44.3125 158.881 43.6307C159.551 42.9489 160.119 41.9489 160.585 40.6307L161.778 37.358L152.182 10.8182H154.415L162.733 34.3239H162.903L171.222 10.8182H173.455L162.409 41.4489C161.989 42.6307 161.46 43.6193 160.824 44.4148C160.188 45.2102 159.46 45.8068 158.642 46.2045C157.835 46.6136 156.949 46.8182 155.983 46.8182ZM188.749 37.5455C186.589 37.5455 184.669 36.9659 182.987 35.8068C181.305 34.6364 179.982 33.0284 179.016 30.983C178.05 28.9375 177.567 26.608 177.567 23.9943C177.567 21.3693 178.05 19.0398 179.016 17.0057C179.982 14.9602 181.305 13.3523 182.987 12.1818C184.669 11.0114 186.589 10.4261 188.749 10.4261C190.908 10.4261 192.828 11.0114 194.51 12.1818C196.192 13.3523 197.516 14.9602 198.482 17.0057C199.447 19.0511 199.93 21.3807 199.93 23.9943C199.93 26.608 199.447 28.9375 198.482 30.983C197.516 33.0284 196.192 34.6364 194.51 35.8068C192.828 36.9659 190.908 37.5455 188.749 37.5455ZM188.749 35.6193C190.578 35.6193 192.175 35.1023 193.538 34.0682C194.913 33.0341 195.976 31.6364 196.726 29.875C197.487 28.1136 197.868 26.1534 197.868 23.9943C197.868 21.8352 197.487 19.8807 196.726 18.1307C195.964 16.3693 194.902 14.9716 193.538 13.9375C192.175 12.892 190.578 12.3693 188.749 12.3693C186.919 12.3693 185.322 12.892 183.959 13.9375C182.595 14.9716 181.533 16.3693 180.771 18.1307C180.01 19.8807 179.629 21.8352 179.629 23.9943C179.629 26.1534 180.004 28.1136 180.754 29.875C181.516 31.6364 182.578 33.0341 183.942 34.0682C185.317 35.1023 186.919 35.6193 188.749 35.6193ZM223.866 27.7102V10.8182H225.946V37H223.866V32.7557H223.696C223.082 34.108 222.088 35.2102 220.713 36.0625C219.349 36.9148 217.736 37.3409 215.872 37.3409C214.156 37.3409 212.639 36.9659 211.321 36.2159C210.003 35.4659 208.969 34.4034 208.219 33.0284C207.469 31.642 207.094 29.9943 207.094 28.0852V10.8182H209.173V28C209.173 30.1818 209.832 31.9489 211.151 33.3011C212.48 34.642 214.196 35.3125 216.298 35.3125C217.662 35.3125 218.918 35.0057 220.065 34.392C221.213 33.7784 222.134 32.9034 222.827 31.767C223.52 30.6193 223.866 29.267 223.866 27.7102ZM234.562 37V10.8182H236.591V14.9091H236.778C237.347 13.5682 238.307 12.4943 239.659 11.6875C241.011 10.8693 242.551 10.4602 244.278 10.4602C244.46 10.4602 244.642 10.4602 244.824 10.4602C245.006 10.4602 245.176 10.4659 245.335 10.4773V12.5739C245.199 12.5625 245.034 12.5455 244.841 12.5227C244.659 12.4886 244.432 12.4716 244.159 12.4716C242.705 12.4716 241.409 12.7841 240.273 13.4091C239.148 14.0341 238.261 14.8977 237.614 16C236.966 17.0909 236.642 18.3409 236.642 19.75V37H234.562ZM273.865 47.3636C272.24 47.3636 270.78 47.1477 269.484 46.7159C268.189 46.2955 267.087 45.6932 266.178 44.9091C265.28 44.125 264.592 43.1932 264.115 42.1136L265.854 41.0909C266.24 41.9318 266.791 42.6818 267.507 43.3409C268.223 44 269.109 44.517 270.166 44.892C271.234 45.267 272.467 45.4545 273.865 45.4545C276.388 45.4545 278.382 44.8011 279.848 43.4943C281.325 42.1989 282.064 40.2102 282.064 37.5284V31.017H281.859C281.462 32.1534 280.871 33.1648 280.087 34.0511C279.314 34.9261 278.365 35.6136 277.24 36.1136C276.115 36.6136 274.837 36.8636 273.405 36.8636C271.337 36.8636 269.518 36.3295 267.95 35.2614C266.382 34.1932 265.161 32.6932 264.286 30.7614C263.411 28.8182 262.973 26.5341 262.973 23.9091C262.973 21.2841 263.399 18.9602 264.251 16.9375C265.115 14.9034 266.331 13.3125 267.899 12.1648C269.467 11.0057 271.308 10.4261 273.422 10.4261C274.933 10.4261 276.24 10.7159 277.342 11.2955C278.456 11.8636 279.388 12.6193 280.138 13.5625C280.888 14.5057 281.467 15.5398 281.876 16.6648H282.115V10.8182H284.126V37.6136C284.126 39.7955 283.695 41.608 282.831 43.0511C281.979 44.4943 280.78 45.5739 279.234 46.2898C277.7 47.0057 275.911 47.3636 273.865 47.3636ZM273.592 34.9375C275.342 34.9375 276.848 34.4943 278.109 33.608C279.382 32.7102 280.359 31.4375 281.041 29.7898C281.734 28.1307 282.081 26.1648 282.081 23.892C282.081 21.6875 281.746 19.7159 281.075 17.9773C280.405 16.2386 279.433 14.8693 278.161 13.8693C276.888 12.8693 275.365 12.3693 273.592 12.3693C271.786 12.3693 270.246 12.8807 268.973 13.9034C267.7 14.9148 266.723 16.2898 266.041 18.0284C265.371 19.767 265.036 21.7216 265.036 23.892C265.036 26.0739 265.376 27.9943 266.058 29.6534C266.74 31.3011 267.717 32.5966 268.99 33.5398C270.263 34.4716 271.797 34.9375 273.592 34.9375ZM294.545 46.8182C294.023 46.8182 293.506 46.7614 292.994 46.6477C292.483 46.5341 292.023 46.3864 291.614 46.2045L292.227 44.3807C293.295 44.7898 294.261 44.9375 295.125 44.8239C296 44.7102 296.773 44.3125 297.443 43.6307C298.114 42.9489 298.682 41.9489 299.148 40.6307L300.341 37.358L290.744 10.8182H292.977L301.295 34.3239H301.466L309.784 10.8182H312.017L300.972 41.4489C300.551 42.6307 300.023 43.6193 299.386 44.4148C298.75 45.2102 298.023 45.8068 297.205 46.2045C296.398 46.6136 295.511 46.8182 294.545 46.8182ZM318.516 37V10.8182H320.544V14.7727H320.749C321.249 13.4545 322.112 12.4091 323.339 11.6364C324.567 10.8636 326.044 10.4773 327.771 10.4773C329.669 10.4773 331.197 10.9318 332.357 11.8409C333.527 12.75 334.368 13.983 334.879 15.5398H335.067C335.578 14.0057 336.493 12.7784 337.811 11.858C339.141 10.9375 340.777 10.4773 342.72 10.4773C345.254 10.4773 347.186 11.2784 348.516 12.8807C349.857 14.4716 350.527 16.6534 350.527 19.4261V37H348.447V19.4261C348.447 17.2443 347.925 15.5284 346.879 14.2784C345.834 13.0284 344.3 12.4034 342.277 12.4034C340.118 12.4034 338.459 13.0795 337.3 14.4318C336.141 15.7841 335.561 17.5057 335.561 19.5966V37H333.482V19.2898C333.482 17.2557 332.97 15.6023 331.947 14.3295C330.925 13.0455 329.391 12.4034 327.345 12.4034C325.959 12.4034 324.76 12.7216 323.749 13.358C322.749 13.9943 321.97 14.8693 321.413 15.983C320.868 17.0966 320.595 18.375 320.595 19.8182V37H318.516ZM382.543 10.8182V12.6761H370.935V10.8182H382.543ZM374.753 37V6.74432C374.753 5.42613 375.054 4.30113 375.656 3.36932C376.259 2.4375 377.048 1.72727 378.026 1.23864C379.014 0.749999 380.077 0.505681 381.213 0.505681C381.815 0.505681 382.327 0.556817 382.747 0.659089C383.179 0.749999 383.554 0.857954 383.872 0.982954L383.259 2.82386C382.997 2.73295 382.713 2.65341 382.406 2.58523C382.111 2.51705 381.759 2.48295 381.349 2.48295C380.031 2.48295 378.946 2.88636 378.094 3.69318C377.241 4.5 376.815 5.625 376.815 7.06818L376.798 37H374.753ZM389.016 37V10.8182H391.044V14.9091H391.232C391.8 13.5682 392.76 12.4943 394.112 11.6875C395.464 10.8693 397.004 10.4602 398.732 10.4602C398.913 10.4602 399.095 10.4602 399.277 10.4602C399.459 10.4602 399.629 10.4659 399.788 10.4773V12.5739C399.652 12.5625 399.487 12.5455 399.294 12.5227C399.112 12.4886 398.885 12.4716 398.612 12.4716C397.158 12.4716 395.862 12.7841 394.726 13.4091C393.601 14.0341 392.714 14.8977 392.067 16C391.419 17.0909 391.095 18.3409 391.095 19.75V37H389.016ZM405.477 37V10.8182H407.54V37H405.477ZM406.517 6.18182C406.063 6.18182 405.665 6.02273 405.324 5.70454C404.994 5.38636 404.83 5 404.83 4.54545C404.83 4.09091 404.994 3.70454 405.324 3.38636C405.653 3.06818 406.051 2.90909 406.517 2.90909C406.972 2.90909 407.364 3.06818 407.693 3.38636C408.034 3.70454 408.205 4.09091 408.205 4.54545C408.205 5 408.04 5.38636 407.71 5.70454C407.381 6.02273 406.983 6.18182 406.517 6.18182ZM426.46 37.5455C424.097 37.5455 422.04 36.9602 420.29 35.7898C418.54 34.6193 417.188 33.017 416.233 30.983C415.278 28.9489 414.801 26.6307 414.801 24.0284C414.801 21.4148 415.278 19.0852 416.233 17.0398C417.199 14.9943 418.523 13.3807 420.205 12.1989C421.886 11.017 423.807 10.4261 425.966 10.4261C427.432 10.4261 428.818 10.7216 430.125 11.3125C431.443 11.892 432.602 12.733 433.602 13.8352C434.614 14.9375 435.403 16.267 435.972 17.8239C436.551 19.3807 436.841 21.1307 436.841 23.0739V24.3693H416.114V22.4773H434.761C434.761 20.5795 434.375 18.8693 433.602 17.3466C432.83 15.8239 431.778 14.6136 430.449 13.7159C429.119 12.8182 427.625 12.3693 425.966 12.3693C424.227 12.3693 422.676 12.858 421.312 13.8352C419.96 14.8011 418.886 16.108 418.091 17.7557C417.307 19.4034 416.898 21.2443 416.864 23.2784V24.1307C416.864 26.3125 417.244 28.2727 418.006 30.0114C418.778 31.7386 419.881 33.108 421.312 34.1193C422.744 35.1193 424.46 35.6193 426.46 35.6193C427.892 35.6193 429.114 35.3807 430.125 34.9034C431.148 34.4148 431.983 33.8239 432.631 33.1307C433.278 32.4375 433.767 31.767 434.097 31.1193L435.989 31.8864C435.591 32.7614 434.972 33.6364 434.131 34.5114C433.301 35.375 432.244 36.0966 430.96 36.6761C429.688 37.2557 428.188 37.5455 426.46 37.5455ZM446.08 20.0227V37H444V10.8182H446.028V14.9602H446.233C446.847 13.608 447.83 12.5227 449.182 11.7045C450.534 10.8864 452.142 10.4773 454.006 10.4773C455.767 10.4773 457.313 10.8523 458.642 11.6023C459.983 12.3523 461.028 13.4205 461.778 14.8068C462.54 16.1818 462.92 17.8239 462.92 19.733V37H460.841V19.8182C460.841 17.5909 460.176 15.8011 458.847 14.4489C457.528 13.0852 455.784 12.4034 453.614 12.4034C452.159 12.4034 450.864 12.7216 449.727 13.358C448.591 13.9943 447.699 14.8864 447.051 16.0341C446.403 17.1705 446.08 18.5 446.08 20.0227ZM480.545 37.5455C478.443 37.5455 476.608 36.9659 475.04 35.8068C473.472 34.6477 472.256 33.0511 471.392 31.017C470.54 28.9716 470.114 26.625 470.114 23.9773C470.114 21.3523 470.545 19.0227 471.409 16.9886C472.284 14.9432 473.506 13.3409 475.074 12.1818C476.642 11.0114 478.472 10.4261 480.562 10.4261C482.062 10.4261 483.364 10.7159 484.466 11.2955C485.58 11.8636 486.511 12.6193 487.261 13.5625C488.023 14.5057 488.602 15.5398 489 16.6648H489.205V2.09091H491.267V37H489.256V31.2898H489C488.58 32.4148 487.994 33.4545 487.244 34.4091C486.494 35.3523 485.563 36.1136 484.449 36.6932C483.335 37.2614 482.034 37.5455 480.545 37.5455ZM480.733 35.6193C482.506 35.6193 484.023 35.1136 485.284 34.1023C486.557 33.0795 487.528 31.6932 488.199 29.9432C488.881 28.1818 489.222 26.1875 489.222 23.9602C489.222 21.733 488.881 19.75 488.199 18.0114C487.528 16.2614 486.557 14.8864 485.284 13.8864C484.023 12.875 482.506 12.3693 480.733 12.3693C478.938 12.3693 477.398 12.8807 476.114 13.9034C474.841 14.9148 473.864 16.2955 473.182 18.0455C472.511 19.7955 472.176 21.767 472.176 23.9602C472.176 26.1534 472.511 28.1307 473.182 29.892C473.864 31.6534 474.841 33.0511 476.114 34.0852C477.398 35.108 478.938 35.6193 480.733 35.6193Z" fill="black"/>
<path d="M10.0227 123L2.18182 96.8182H4.36364L11.1136 119.949H11.3011L18.0682 96.8182H20.233L26.983 119.932H27.1534L33.9034 96.8182H36.0852L28.2443 123H25.9261L19.2443 100.21H19.0227L12.3409 123H10.0227ZM44.642 106.023V123H42.5625V88.0909H44.642V100.96H44.8466C45.4602 99.5966 46.4375 98.5114 47.7784 97.7045C49.1307 96.8864 50.75 96.4773 52.6364 96.4773C54.3977 96.4773 55.9489 96.8523 57.2898 97.6023C58.6307 98.3409 59.6761 99.4034 60.4261 100.79C61.1875 102.165 61.5682 103.812 61.5682 105.733V123H59.5057V105.818C59.5057 103.58 58.8409 101.784 57.5114 100.432C56.1818 99.0795 54.4261 98.4034 52.2443 98.4034C50.7784 98.4034 49.4716 98.7216 48.3239 99.358C47.1761 99.9943 46.2727 100.886 45.6136 102.034C44.9659 103.17 44.642 104.5 44.642 106.023ZM79.9048 123.545C77.7457 123.545 75.8253 122.966 74.1435 121.807C72.4616 120.636 71.1378 119.028 70.1719 116.983C69.206 114.937 68.723 112.608 68.723 109.994C68.723 107.369 69.206 105.04 70.1719 103.006C71.1378 100.96 72.4616 99.3523 74.1435 98.1818C75.8253 97.0114 77.7457 96.4261 79.9048 96.4261C82.0639 96.4261 83.9844 97.0114 85.6662 98.1818C87.348 99.3523 88.6719 100.96 89.6378 103.006C90.6037 105.051 91.0866 107.381 91.0866 109.994C91.0866 112.608 90.6037 114.937 89.6378 116.983C88.6719 119.028 87.348 120.636 85.6662 121.807C83.9844 122.966 82.0639 123.545 79.9048 123.545ZM79.9048 121.619C81.7344 121.619 83.331 121.102 84.6946 120.068C86.0696 119.034 87.1321 117.636 87.8821 115.875C88.6435 114.114 89.0241 112.153 89.0241 109.994C89.0241 107.835 88.6435 105.881 87.8821 104.131C87.1207 102.369 86.0582 100.972 84.6946 99.9375C83.331 98.892 81.7344 98.3693 79.9048 98.3693C78.0753 98.3693 76.4787 98.892 75.1151 99.9375C73.7514 100.972 72.6889 102.369 71.9276 104.131C71.1662 105.881 70.7855 107.835 70.7855 109.994C70.7855 112.153 71.1605 114.114 71.9105 115.875C72.6719 117.636 73.7344 119.034 75.098 120.068C76.473 121.102 78.0753 121.619 79.9048 121.619ZM113.557 112.773L113.523 109.79H114.068L127.159 96.8182H129.869L117.852 108.75L117.648 108.835L113.557 112.773ZM111.75 123V88.0909H113.83V123H111.75ZM127.756 123L116.71 109.04L118.21 107.659L130.415 123H127.756ZM145.163 123.545C142.8 123.545 140.743 122.96 138.993 121.79C137.243 120.619 135.891 119.017 134.936 116.983C133.982 114.949 133.504 112.631 133.504 110.028C133.504 107.415 133.982 105.085 134.936 103.04C135.902 100.994 137.226 99.3807 138.908 98.1989C140.589 97.017 142.51 96.4261 144.669 96.4261C146.135 96.4261 147.521 96.7216 148.828 97.3125C150.146 97.892 151.305 98.733 152.305 99.8352C153.317 100.937 154.107 102.267 154.675 103.824C155.254 105.381 155.544 107.131 155.544 109.074V110.369H134.817V108.477H153.464C153.464 106.58 153.078 104.869 152.305 103.347C151.533 101.824 150.482 100.614 149.152 99.7159C147.822 98.8182 146.328 98.3693 144.669 98.3693C142.93 98.3693 141.379 98.858 140.016 99.8352C138.663 100.801 137.589 102.108 136.794 103.756C136.01 105.403 135.601 107.244 135.567 109.278V110.131C135.567 112.312 135.947 114.273 136.709 116.011C137.482 117.739 138.584 119.108 140.016 120.119C141.447 121.119 143.163 121.619 145.163 121.619C146.595 121.619 147.817 121.381 148.828 120.903C149.851 120.415 150.686 119.824 151.334 119.131C151.982 118.437 152.47 117.767 152.8 117.119L154.692 117.886C154.294 118.761 153.675 119.636 152.834 120.511C152.004 121.375 150.947 122.097 149.663 122.676C148.391 123.256 146.891 123.545 145.163 123.545ZM172.913 123.545C170.55 123.545 168.493 122.96 166.743 121.79C164.993 120.619 163.641 119.017 162.686 116.983C161.732 114.949 161.254 112.631 161.254 110.028C161.254 107.415 161.732 105.085 162.686 103.04C163.652 100.994 164.976 99.3807 166.658 98.1989C168.339 97.017 170.26 96.4261 172.419 96.4261C173.885 96.4261 175.271 96.7216 176.578 97.3125C177.896 97.892 179.055 98.733 180.055 99.8352C181.067 100.937 181.857 102.267 182.425 103.824C183.004 105.381 183.294 107.131 183.294 109.074V110.369H162.567V108.477H181.214C181.214 106.58 180.828 104.869 180.055 103.347C179.283 101.824 178.232 100.614 176.902 99.7159C175.572 98.8182 174.078 98.3693 172.419 98.3693C170.68 98.3693 169.129 98.858 167.766 99.8352C166.413 100.801 165.339 102.108 164.544 103.756C163.76 105.403 163.351 107.244 163.317 109.278V110.131C163.317 112.312 163.697 114.273 164.459 116.011C165.232 117.739 166.334 119.108 167.766 120.119C169.197 121.119 170.913 121.619 172.913 121.619C174.345 121.619 175.567 121.381 176.578 120.903C177.601 120.415 178.436 119.824 179.084 119.131C179.732 118.437 180.22 117.767 180.55 117.119L182.442 117.886C182.044 118.761 181.425 119.636 180.584 120.511C179.754 121.375 178.697 122.097 177.413 122.676C176.141 123.256 174.641 123.545 172.913 123.545ZM190.453 132.818V96.8182H192.482V102.665H192.737C193.146 101.54 193.72 100.506 194.459 99.5625C195.209 98.6193 196.135 97.8636 197.237 97.2955C198.351 96.7159 199.658 96.4261 201.158 96.4261C203.271 96.4261 205.112 97.0057 206.68 98.1648C208.249 99.3239 209.464 100.926 210.328 102.972C211.192 105.006 211.624 107.341 211.624 109.977C211.624 112.614 211.186 114.955 210.311 117C209.447 119.034 208.232 120.636 206.663 121.807C205.107 122.966 203.283 123.545 201.192 123.545C199.703 123.545 198.396 123.261 197.271 122.693C196.158 122.125 195.22 121.369 194.459 120.426C193.709 119.472 193.135 118.426 192.737 117.29H192.533V132.818H190.453ZM192.499 109.96C192.499 112.187 192.839 114.182 193.521 115.943C194.203 117.693 195.18 119.08 196.453 120.102C197.726 121.114 199.243 121.619 201.004 121.619C202.788 121.619 204.317 121.108 205.589 120.085C206.874 119.051 207.851 117.653 208.521 115.892C209.203 114.131 209.544 112.153 209.544 109.96C209.544 107.767 209.209 105.795 208.538 104.045C207.868 102.295 206.896 100.915 205.624 99.9034C204.351 98.8807 202.811 98.3693 201.004 98.3693C199.22 98.3693 197.692 98.875 196.419 99.8864C195.158 100.886 194.186 102.261 193.504 104.011C192.834 105.75 192.499 107.733 192.499 109.96ZM235.449 102.46L233.523 102.972C233.216 102.017 232.778 101.193 232.21 100.5C231.642 99.8068 230.926 99.2727 230.062 98.8977C229.21 98.5114 228.188 98.3182 226.994 98.3182C225.074 98.3182 223.5 98.7955 222.273 99.75C221.057 100.705 220.449 101.949 220.449 103.483C220.449 104.733 220.864 105.767 221.693 106.585C222.523 107.392 223.79 108.006 225.494 108.426L229.517 109.432C231.585 109.943 233.142 110.773 234.188 111.92C235.233 113.057 235.756 114.472 235.756 116.165C235.756 117.608 235.364 118.886 234.58 120C233.795 121.114 232.71 121.983 231.324 122.608C229.949 123.233 228.347 123.545 226.517 123.545C224.074 123.545 222.068 122.977 220.5 121.841C218.932 120.693 217.926 119.051 217.483 116.915L219.477 116.403C219.852 118.108 220.631 119.409 221.812 120.307C223.006 121.193 224.568 121.636 226.5 121.636C228.636 121.636 230.358 121.131 231.665 120.119C232.983 119.108 233.642 117.812 233.642 116.233C233.642 115.028 233.256 114.011 232.483 113.182C231.71 112.352 230.54 111.744 228.972 111.358L224.795 110.335C222.659 109.812 221.057 108.977 219.989 107.83C218.92 106.67 218.386 105.244 218.386 103.551C218.386 102.142 218.756 100.903 219.494 99.8352C220.233 98.767 221.25 97.9318 222.545 97.3295C223.841 96.7273 225.324 96.4261 226.994 96.4261C229.21 96.4261 231.017 96.9489 232.415 97.9943C233.813 99.0398 234.824 100.528 235.449 102.46ZM256.453 132.818V96.8182H258.482V102.665H258.737C259.146 101.54 259.72 100.506 260.459 99.5625C261.209 98.6193 262.135 97.8636 263.237 97.2955C264.351 96.7159 265.658 96.4261 267.158 96.4261C269.271 96.4261 271.112 97.0057 272.68 98.1648C274.249 99.3239 275.464 100.926 276.328 102.972C277.192 105.006 277.624 107.341 277.624 109.977C277.624 112.614 277.186 114.955 276.311 117C275.447 119.034 274.232 120.636 272.663 121.807C271.107 122.966 269.283 123.545 267.192 123.545C265.703 123.545 264.396 123.261 263.271 122.693C262.158 122.125 261.22 121.369 260.459 120.426C259.709 119.472 259.135 118.426 258.737 117.29H258.533V132.818H256.453ZM258.499 109.96C258.499 112.187 258.839 114.182 259.521 115.943C260.203 117.693 261.18 119.08 262.453 120.102C263.726 121.114 265.243 121.619 267.004 121.619C268.788 121.619 270.317 121.108 271.589 120.085C272.874 119.051 273.851 117.653 274.521 115.892C275.203 114.131 275.544 112.153 275.544 109.96C275.544 107.767 275.209 105.795 274.538 104.045C273.868 102.295 272.896 100.915 271.624 99.9034C270.351 98.8807 268.811 98.3693 267.004 98.3693C265.22 98.3693 263.692 98.875 262.419 99.8864C261.158 100.886 260.186 102.261 259.504 104.011C258.834 105.75 258.499 107.733 258.499 109.96ZM284.812 123V96.8182H286.841V100.909H287.028C287.597 99.5682 288.557 98.4943 289.909 97.6875C291.261 96.8693 292.801 96.4602 294.528 96.4602C294.71 96.4602 294.892 96.4602 295.074 96.4602C295.256 96.4602 295.426 96.4659 295.585 96.4773V98.5739C295.449 98.5625 295.284 98.5455 295.091 98.5227C294.909 98.4886 294.682 98.4716 294.409 98.4716C292.955 98.4716 291.659 98.7841 290.523 99.4091C289.398 100.034 288.511 100.898 287.864 102C287.216 103.091 286.892 104.341 286.892 105.75V123H284.812ZM310.108 123.545C307.949 123.545 306.028 122.966 304.347 121.807C302.665 120.636 301.341 119.028 300.375 116.983C299.409 114.937 298.926 112.608 298.926 109.994C298.926 107.369 299.409 105.04 300.375 103.006C301.341 100.96 302.665 99.3523 304.347 98.1818C306.028 97.0114 307.949 96.4261 310.108 96.4261C312.267 96.4261 314.188 97.0114 315.869 98.1818C317.551 99.3523 318.875 100.96 319.841 103.006C320.807 105.051 321.29 107.381 321.29 109.994C321.29 112.608 320.807 114.937 319.841 116.983C318.875 119.028 317.551 120.636 315.869 121.807C314.188 122.966 312.267 123.545 310.108 123.545ZM310.108 121.619C311.938 121.619 313.534 121.102 314.898 120.068C316.273 119.034 317.335 117.636 318.085 115.875C318.847 114.114 319.227 112.153 319.227 109.994C319.227 107.835 318.847 105.881 318.085 104.131C317.324 102.369 316.261 100.972 314.898 99.9375C313.534 98.892 311.938 98.3693 310.108 98.3693C308.278 98.3693 306.682 98.892 305.318 99.9375C303.955 100.972 302.892 102.369 302.131 104.131C301.369 105.881 300.989 107.835 300.989 109.994C300.989 112.153 301.364 114.114 302.114 115.875C302.875 117.636 303.938 119.034 305.301 120.068C306.676 121.102 308.278 121.619 310.108 121.619ZM337.896 133.364C336.271 133.364 334.811 133.148 333.516 132.716C332.22 132.295 331.118 131.693 330.209 130.909C329.311 130.125 328.624 129.193 328.146 128.114L329.885 127.091C330.271 127.932 330.822 128.682 331.538 129.341C332.254 130 333.141 130.517 334.197 130.892C335.266 131.267 336.499 131.455 337.896 131.455C340.419 131.455 342.413 130.801 343.879 129.494C345.357 128.199 346.095 126.21 346.095 123.528V117.017H345.891C345.493 118.153 344.902 119.165 344.118 120.051C343.345 120.926 342.396 121.614 341.271 122.114C340.146 122.614 338.868 122.864 337.436 122.864C335.368 122.864 333.55 122.33 331.982 121.261C330.413 120.193 329.192 118.693 328.317 116.761C327.442 114.818 327.004 112.534 327.004 109.909C327.004 107.284 327.43 104.96 328.283 102.938C329.146 100.903 330.362 99.3125 331.93 98.1648C333.499 97.0057 335.339 96.4261 337.453 96.4261C338.964 96.4261 340.271 96.7159 341.374 97.2955C342.487 97.8636 343.419 98.6193 344.169 99.5625C344.919 100.506 345.499 101.54 345.908 102.665H346.146V96.8182H348.158V123.614C348.158 125.795 347.726 127.608 346.862 129.051C346.01 130.494 344.811 131.574 343.266 132.29C341.732 133.006 339.942 133.364 337.896 133.364ZM337.624 120.938C339.374 120.938 340.879 120.494 342.141 119.608C343.413 118.71 344.391 117.437 345.072 115.79C345.766 114.131 346.112 112.165 346.112 109.892C346.112 107.687 345.777 105.716 345.107 103.977C344.436 102.239 343.464 100.869 342.192 99.8693C340.919 98.8693 339.396 98.3693 337.624 98.3693C335.817 98.3693 334.277 98.8807 333.004 99.9034C331.732 100.915 330.754 102.29 330.072 104.028C329.402 105.767 329.067 107.722 329.067 109.892C329.067 112.074 329.408 113.994 330.089 115.653C330.771 117.301 331.749 118.597 333.021 119.54C334.294 120.472 335.828 120.938 337.624 120.938ZM356.906 123V96.8182H358.935V100.909H359.122C359.69 99.5682 360.651 98.4943 362.003 97.6875C363.355 96.8693 364.895 96.4602 366.622 96.4602C366.804 96.4602 366.986 96.4602 367.168 96.4602C367.349 96.4602 367.52 96.4659 367.679 96.4773V98.5739C367.543 98.5625 367.378 98.5455 367.185 98.5227C367.003 98.4886 366.776 98.4716 366.503 98.4716C365.048 98.4716 363.753 98.7841 362.616 99.4091C361.491 100.034 360.605 100.898 359.957 102C359.31 103.091 358.986 104.341 358.986 105.75V123H356.906ZM382.679 123.545C380.315 123.545 378.259 122.96 376.509 121.79C374.759 120.619 373.406 119.017 372.452 116.983C371.497 114.949 371.02 112.631 371.02 110.028C371.02 107.415 371.497 105.085 372.452 103.04C373.418 100.994 374.741 99.3807 376.423 98.1989C378.105 97.017 380.026 96.4261 382.185 96.4261C383.651 96.4261 385.037 96.7216 386.344 97.3125C387.662 97.892 388.821 98.733 389.821 99.8352C390.832 100.937 391.622 102.267 392.19 103.824C392.77 105.381 393.06 107.131 393.06 109.074V110.369H372.332V108.477H390.98C390.98 106.58 390.594 104.869 389.821 103.347C389.048 101.824 387.997 100.614 386.668 99.7159C385.338 98.8182 383.844 98.3693 382.185 98.3693C380.446 98.3693 378.895 98.858 377.531 99.8352C376.179 100.801 375.105 102.108 374.31 103.756C373.526 105.403 373.116 107.244 373.082 109.278V110.131C373.082 112.312 373.463 114.273 374.224 116.011C374.997 117.739 376.099 119.108 377.531 120.119C378.963 121.119 380.679 121.619 382.679 121.619C384.111 121.619 385.332 121.381 386.344 120.903C387.366 120.415 388.202 119.824 388.849 119.131C389.497 118.437 389.986 117.767 390.315 117.119L392.207 117.886C391.81 118.761 391.19 119.636 390.349 120.511C389.52 121.375 388.463 122.097 387.179 122.676C385.906 123.256 384.406 123.545 382.679 123.545ZM416.855 102.46L414.929 102.972C414.622 102.017 414.185 101.193 413.616 100.5C413.048 99.8068 412.332 99.2727 411.469 98.8977C410.616 98.5114 409.594 98.3182 408.401 98.3182C406.48 98.3182 404.906 98.7955 403.679 99.75C402.463 100.705 401.855 101.949 401.855 103.483C401.855 104.733 402.27 105.767 403.099 106.585C403.929 107.392 405.196 108.006 406.901 108.426L410.923 109.432C412.991 109.943 414.548 110.773 415.594 111.92C416.639 113.057 417.162 114.472 417.162 116.165C417.162 117.608 416.77 118.886 415.986 120C415.202 121.114 414.116 121.983 412.73 122.608C411.355 123.233 409.753 123.545 407.923 123.545C405.48 123.545 403.474 122.977 401.906 121.841C400.338 120.693 399.332 119.051 398.889 116.915L400.884 116.403C401.259 118.108 402.037 119.409 403.219 120.307C404.412 121.193 405.974 121.636 407.906 121.636C410.043 121.636 411.764 121.131 413.071 120.119C414.389 119.108 415.048 117.812 415.048 116.233C415.048 115.028 414.662 114.011 413.889 113.182C413.116 112.352 411.946 111.744 410.378 111.358L406.202 110.335C404.065 109.812 402.463 108.977 401.395 107.83C400.327 106.67 399.793 105.244 399.793 103.551C399.793 102.142 400.162 100.903 400.901 99.8352C401.639 98.767 402.656 97.9318 403.952 97.3295C405.247 96.7273 406.73 96.4261 408.401 96.4261C410.616 96.4261 412.423 96.9489 413.821 97.9943C415.219 99.0398 416.23 100.528 416.855 102.46ZM440.996 102.46L439.07 102.972C438.763 102.017 438.325 101.193 437.757 100.5C437.189 99.8068 436.473 99.2727 435.609 98.8977C434.757 98.5114 433.734 98.3182 432.541 98.3182C430.621 98.3182 429.047 98.7955 427.82 99.75C426.604 100.705 425.996 101.949 425.996 103.483C425.996 104.733 426.411 105.767 427.24 106.585C428.07 107.392 429.337 108.006 431.041 108.426L435.064 109.432C437.132 109.943 438.689 110.773 439.734 111.92C440.78 113.057 441.303 114.472 441.303 116.165C441.303 117.608 440.911 118.886 440.126 120C439.342 121.114 438.257 121.983 436.871 122.608C435.496 123.233 433.893 123.545 432.064 123.545C429.621 123.545 427.615 122.977 426.047 121.841C424.479 120.693 423.473 119.051 423.03 116.915L425.024 116.403C425.399 118.108 426.178 119.409 427.359 120.307C428.553 121.193 430.115 121.636 432.047 121.636C434.183 121.636 435.905 121.131 437.212 120.119C438.53 119.108 439.189 117.812 439.189 116.233C439.189 115.028 438.803 114.011 438.03 113.182C437.257 112.352 436.087 111.744 434.518 111.358L430.342 110.335C428.206 109.812 426.604 108.977 425.536 107.83C424.467 106.67 423.933 105.244 423.933 103.551C423.933 102.142 424.303 100.903 425.041 99.8352C425.78 98.767 426.797 97.9318 428.092 97.3295C429.388 96.7273 430.871 96.4261 432.541 96.4261C434.757 96.4261 436.564 96.9489 437.962 97.9943C439.359 99.0398 440.371 100.528 440.996 102.46ZM471.886 96.8182V98.6761H460.278V96.8182H471.886ZM464.097 123V92.7443C464.097 91.4261 464.398 90.3011 465 89.3693C465.602 88.4375 466.392 87.7273 467.369 87.2386C468.358 86.75 469.42 86.5057 470.557 86.5057C471.159 86.5057 471.67 86.5568 472.091 86.6591C472.523 86.75 472.898 86.858 473.216 86.983L472.602 88.8239C472.341 88.733 472.057 88.6534 471.75 88.5852C471.455 88.517 471.102 88.483 470.693 88.483C469.375 88.483 468.29 88.8864 467.438 89.6932C466.585 90.5 466.159 91.625 466.159 93.0682L466.142 123H464.097ZM487.014 123.545C484.855 123.545 482.935 122.966 481.253 121.807C479.571 120.636 478.247 119.028 477.281 116.983C476.315 114.937 475.832 112.608 475.832 109.994C475.832 107.369 476.315 105.04 477.281 103.006C478.247 100.96 479.571 99.3523 481.253 98.1818C482.935 97.0114 484.855 96.4261 487.014 96.4261C489.173 96.4261 491.094 97.0114 492.776 98.1818C494.457 99.3523 495.781 100.96 496.747 103.006C497.713 105.051 498.196 107.381 498.196 109.994C498.196 112.608 497.713 114.937 496.747 116.983C495.781 119.028 494.457 120.636 492.776 121.807C491.094 122.966 489.173 123.545 487.014 123.545ZM487.014 121.619C488.844 121.619 490.44 121.102 491.804 120.068C493.179 119.034 494.241 117.636 494.991 115.875C495.753 114.114 496.134 112.153 496.134 109.994C496.134 107.835 495.753 105.881 494.991 104.131C494.23 102.369 493.168 100.972 491.804 99.9375C490.44 98.892 488.844 98.3693 487.014 98.3693C485.185 98.3693 483.588 98.892 482.224 99.9375C480.861 100.972 479.798 102.369 479.037 104.131C478.276 105.881 477.895 107.835 477.895 109.994C477.895 112.153 478.27 114.114 479.02 115.875C479.781 117.636 480.844 119.034 482.207 120.068C483.582 121.102 485.185 121.619 487.014 121.619ZM505.359 123V96.8182H507.388V100.909H507.575C508.143 99.5682 509.104 98.4943 510.456 97.6875C511.808 96.8693 513.348 96.4602 515.075 96.4602C515.257 96.4602 515.439 96.4602 515.621 96.4602C515.803 96.4602 515.973 96.4659 516.132 96.4773V98.5739C515.996 98.5625 515.831 98.5455 515.638 98.5227C515.456 98.4886 515.229 98.4716 514.956 98.4716C513.501 98.4716 512.206 98.7841 511.07 99.4091C509.945 100.034 509.058 100.898 508.411 102C507.763 103.091 507.439 104.341 507.439 105.75V123H505.359ZM536.889 132.818C536.366 132.818 535.849 132.761 535.338 132.648C534.827 132.534 534.366 132.386 533.957 132.205L534.571 130.381C535.639 130.79 536.605 130.938 537.469 130.824C538.344 130.71 539.116 130.313 539.787 129.631C540.457 128.949 541.026 127.949 541.491 126.631L542.685 123.358L533.088 96.8182H535.321L543.639 120.324H543.81L552.128 96.8182H554.361L543.315 127.449C542.895 128.631 542.366 129.619 541.73 130.415C541.094 131.21 540.366 131.807 539.548 132.205C538.741 132.614 537.855 132.818 536.889 132.818ZM569.655 123.545C567.496 123.545 565.575 122.966 563.893 121.807C562.212 120.636 560.888 119.028 559.922 116.983C558.956 114.937 558.473 112.608 558.473 109.994C558.473 107.369 558.956 105.04 559.922 103.006C560.888 100.96 562.212 99.3523 563.893 98.1818C565.575 97.0114 567.496 96.4261 569.655 96.4261C571.814 96.4261 573.734 97.0114 575.416 98.1818C577.098 99.3523 578.422 100.96 579.388 103.006C580.354 105.051 580.837 107.381 580.837 109.994C580.837 112.608 580.354 114.937 579.388 116.983C578.422 119.028 577.098 120.636 575.416 121.807C573.734 122.966 571.814 123.545 569.655 123.545ZM569.655 121.619C571.484 121.619 573.081 121.102 574.445 120.068C575.82 119.034 576.882 117.636 577.632 115.875C578.393 114.114 578.774 112.153 578.774 109.994C578.774 107.835 578.393 105.881 577.632 104.131C576.871 102.369 575.808 100.972 574.445 99.9375C573.081 98.892 571.484 98.3693 569.655 98.3693C567.825 98.3693 566.229 98.892 564.865 99.9375C563.501 100.972 562.439 102.369 561.678 104.131C560.916 105.881 560.536 107.835 560.536 109.994C560.536 112.153 560.911 114.114 561.661 115.875C562.422 117.636 563.484 119.034 564.848 120.068C566.223 121.102 567.825 121.619 569.655 121.619ZM604.773 113.71V96.8182H606.852V123H604.773V118.756H604.602C603.989 120.108 602.994 121.21 601.619 122.062C600.256 122.915 598.642 123.341 596.778 123.341C595.063 123.341 593.545 122.966 592.227 122.216C590.909 121.466 589.875 120.403 589.125 119.028C588.375 117.642 588 115.994 588 114.085V96.8182H590.08V114C590.08 116.182 590.739 117.949 592.057 119.301C593.386 120.642 595.102 121.312 597.205 121.312C598.568 121.312 599.824 121.006 600.972 120.392C602.119 119.778 603.04 118.903 603.733 117.767C604.426 116.619 604.773 115.267 604.773 113.71Z" fill="black"/>
<g clip-path="url(#clip0_0_1)">
<path d="M646 133.308C633.154 133.308 622.692 122.846 622.692 110C622.692 97.1538 633.154 86.6154 646 86.6154C658.846 86.6154 669.308 97.0769 669.308 109.923C669.308 122.769 658.846 133.308 646 133.308ZM646 89.6923C634.846 89.6923 625.692 98.8461 625.692 110C625.692 121.154 634.769 130.231 645.923 130.231C657.077 130.231 666.154 121.154 666.154 110C666.154 98.8461 657.154 89.6923 646 89.6923Z" fill="#191919"/>
<path d="M646.385 122.846H646C638.231 122.846 634.692 117.077 634 114.077C633.769 113.231 634.308 112.385 635.154 112.231C636 112 636.846 112.538 637 113.385C637.077 113.615 638.769 119.846 646.077 119.846H646.461C653.769 119.846 655.461 113.692 655.538 113.385C655.769 112.538 656.615 112.077 657.385 112.308C658.231 112.538 658.692 113.308 658.538 114.154C657.615 117.154 654.154 122.846 646.385 122.846Z" fill="#191919"/>
<path d="M637.923 108.154C639.41 108.154 640.615 106.948 640.615 105.462C640.615 103.975 639.41 102.769 637.923 102.769C636.436 102.769 635.231 103.975 635.231 105.462C635.231 106.948 636.436 108.154 637.923 108.154Z" fill="#191919"/>
<path d="M653.846 108.154C655.333 108.154 656.538 106.948 656.538 105.462C656.538 103.975 655.333 102.769 653.846 102.769C652.359 102.769 651.154 103.975 651.154 105.462C651.154 106.948 652.359 108.154 653.846 108.154Z" fill="#191919"/>
</g>
<defs>
<clipPath id="clip0_0_1">
<rect width="48" height="48" fill="white" transform="translate(622 86)"/>
</clipPath>
</defs>
</svg>
