<svg width="650" height="650" viewBox="0 0 650 650" fill="none" xmlns="http://www.w3.org/2000/svg">
<path d="M65 300.625V406.25H162.5H260V402.187V398.125H166.563H73.125V300.625V203.125H325H576.875V300.625V398.125H483.438H390V402.187V406.25H487.5H585V300.625V195H325H65V300.625Z" fill="black"/>
<path d="M299.271 264.333C296.996 265.254 295.479 267.529 295.479 270.075C295.479 272.025 295.804 272.729 297.213 274.138C300.408 277.388 306.529 276.738 308.479 273C310.213 269.696 309.183 266.229 306.042 264.604C304.363 263.738 301.004 263.575 299.271 264.333Z" fill="black"/>
<path d="M376.079 270.021C366.167 272.188 358.421 279.338 355.875 288.6C355.55 289.9 355.279 293.042 355.279 295.642C355.279 303.713 357.988 309.942 363.621 315.033C369.308 320.179 375.213 322.021 384.583 321.588C391.517 321.317 395.904 320.125 400.725 317.254L403.542 315.575V305.121V294.613L398.288 294.775L392.979 294.938L392.817 302.358L392.654 309.833L390.921 310.754C388.375 312.054 381.658 312.325 377.975 311.242C374.021 310.104 370.013 306.529 368.279 302.683C367.304 300.463 367.033 298.783 367.033 295.425C366.979 291.633 367.196 290.658 368.604 287.896C371.583 282.1 376.946 279.175 384.367 279.283C388.7 279.392 391.95 280.583 394.983 283.238L396.933 284.917L400.617 281.45L404.354 277.983L402.783 276.304C400.563 273.975 394.442 270.888 390.163 270.021C385.667 269.046 380.521 269.046 376.079 270.021Z" fill="black"/>
<path d="M247.542 295.75V321.208H253.5H259.458L259.567 311.838L259.729 302.521L271.538 302.358L283.292 302.25V297.646V293.042H271.375H259.458V286.271V279.5H272.729H286V274.896V270.292H266.771H247.542V295.75Z" fill="black"/>
<path d="M323.863 274.192C323.863 274.896 323.808 277.062 323.808 279.067L323.754 282.75H320.558H317.417V287.083V291.362L320.558 291.525L323.646 291.687L323.754 301.546C323.808 307.45 324.079 312.217 324.458 313.408C325.975 317.904 330.308 320.937 336.213 321.533C339.625 321.912 344.825 321.046 346.396 319.908C347.317 319.258 347.317 318.987 345.908 315.358C345.042 313.083 344.175 311.621 343.85 311.783C342.496 312.596 339.408 312.975 337.946 312.433C335.183 311.458 334.75 309.779 334.75 300.083V291.417H339.625H344.5V287.083V282.75H339.625H334.75V277.875V273H329.333C324.079 273 323.917 273.054 323.863 274.192Z" fill="black"/>
<path d="M296.833 301.708V321.208H302.521H308.208V301.708V282.208H302.521H296.833V301.708Z" fill="black"/>
<path d="M329.225 364.433C324.729 368.983 324.838 369.363 331.5 376.133L336.863 381.658L320.667 397.854L304.417 414.104L299.108 408.796C292.5 402.188 291.688 402.025 287.246 406.413C283.454 410.258 283.4 411.721 286.813 415.404L289.196 417.95L286.813 420.333C283.671 423.421 283.563 425.154 286.325 427.971L288.329 430.029L286.325 432.304C283.996 435.067 283.671 438.208 285.458 440.483C287.95 443.679 292.338 443.679 295.479 440.375L296.996 438.75L299.325 440.917C300.625 442.108 302.196 443.083 302.792 443.083C303.442 443.083 305.121 441.946 306.583 440.592L309.292 438.046L312.054 440.646C314.438 442.867 314.979 443.138 316.496 442.867C318.879 442.433 323.917 437.233 323.917 435.175C323.917 434.038 322.725 432.467 318.5 428.242L313.138 422.717L329.333 406.521L345.583 390.271L350.946 395.633C357.663 402.296 358.258 402.458 362.646 398.125C366.546 394.279 366.654 392.654 363.188 388.971L360.804 386.425L363.188 384.042C366.329 380.954 366.438 379.221 363.621 376.35L361.617 374.292L363.025 372.829C364.921 370.717 365.625 369.254 365.625 367.142C365.625 364.921 364.488 363.188 362.267 362.05C360.046 360.913 357.608 361.454 355.008 363.675L352.896 365.517L350.621 363.404C349.321 362.267 347.804 361.292 347.208 361.292C346.558 361.292 344.879 362.429 343.417 363.783L340.708 366.329L338 363.783C334.371 360.371 333.233 360.425 329.225 364.433ZM360.046 395.254L358.042 397.313L343.958 383.229L329.875 369.146L331.879 367.142L333.938 365.083L348.021 379.167L362.104 393.25L360.046 395.254ZM354.629 372.233C358.583 376.188 361.833 379.708 361.833 379.979C361.833 380.304 361.021 381.333 360.046 382.308L358.258 384.042L350.729 376.458L343.2 368.875L345.042 366.979C346.071 365.95 346.992 365.083 347.154 365.083C347.317 365.083 350.675 368.333 354.629 372.233ZM361.671 366.492C362.321 367.521 362.267 367.846 361.021 369.363C359.288 371.421 358.638 371.475 356.958 369.688L355.658 368.333L357.229 366.708C359.017 364.813 360.533 364.758 361.671 366.492ZM341.413 386.1L342.875 387.617L326.625 403.813L310.429 420.008L308.75 418.438L307.071 416.867L323.213 400.725C332.096 391.842 339.463 384.583 339.679 384.583C339.842 384.583 340.6 385.288 341.413 386.1ZM306.204 421.308L320.125 435.283L318.067 437.288L316.063 439.292L301.979 425.208L287.95 411.125L289.792 409.229C290.821 408.2 291.742 407.333 291.958 407.333C292.121 407.333 298.513 413.617 306.204 421.308ZM304.796 437.504L302.792 439.563L295.479 432.25C291.471 428.242 288.167 424.721 288.167 424.45C288.167 424.125 288.925 423.096 289.9 422.121L291.633 420.279L299.271 427.917L306.854 435.5L304.796 437.504ZM293.042 434.688L294.342 436.042L292.771 437.667C290.983 439.563 289.467 439.617 288.329 437.883C287.679 436.854 287.733 436.529 288.979 435.013C290.713 432.954 291.363 432.9 293.042 434.688Z" fill="black"/>
</svg>
