<svg width="213" height="213" viewBox="0 0 213 213" fill="none" xmlns="http://www.w3.org/2000/svg">
<g clip-path="url(#clip0_28_256)" filter="url(#filter0_d_28_256)">
<path d="M108.334 133.82C126.71 133.82 141.607 118.923 141.607 100.546C141.607 82.1695 126.71 67.2725 108.334 67.2725C89.9574 67.2725 75.0603 82.1695 75.0603 100.546C75.0603 118.923 89.9574 133.82 108.334 133.82Z" fill="#A0616A"/>
<path d="M80.7933 141.27L87.7294 123.545L123.566 118.15L127.416 157.388L91.1944 158.158L80.7933 141.27Z" fill="#A0616A"/>
<path d="M141.93 106.685C141.498 108.415 140.625 112.535 139.262 112.555C138.148 112.571 137.082 94.7004 138.195 91.7444C139.472 88.3485 136.114 84.0528 133.584 81.8477C129.036 77.8828 118.939 86.3965 108.672 82.5397C108.4 82.4377 108.454 82.4492 105.212 81.1557C95.2354 77.1752 94.7109 77.0604 94.1394 77.0036C89.3032 76.5251 83.4011 80.4826 80.9911 85.3078C78.4857 90.3235 80.579 94.6257 78.223 106.76C77.9485 108.175 77.5173 110.191 76.839 110.22C75.5989 110.274 74.388 103.651 74.0709 101.916C72.7423 94.648 71.4613 87.6406 74.0709 79.7716C74.3556 78.9134 76.11 75.7277 79.607 69.3914C84.6451 60.2634 87.179 55.6822 87.9112 54.8591C93.1629 48.9533 102.722 43.5658 110.748 45.8629C114.804 47.0239 114.077 48.8904 119.052 50.707C127.918 53.944 135.623 49.9852 137.044 52.783C137.797 54.265 135.691 55.4869 135.66 58.3191C135.608 63.1788 141.754 64.5831 145.349 69.3914C147.281 71.9763 150.588 72.004 141.93 106.685L141.93 106.685V106.685Z" fill="#2F2E41"/>
<path d="M183.152 170.555C181.811 172.062 180.42 173.537 178.978 174.979C159.619 194.338 133.878 205 106.5 205C82.8364 205 60.3982 197.035 42.2449 182.373C42.2333 182.366 42.2256 182.358 42.2141 182.346C39.8057 180.404 37.4744 178.339 35.224 176.158C35.2663 175.819 35.3126 175.483 35.3627 175.152C35.6787 172.917 36.0294 170.786 36.4223 168.825C39.64 152.748 81.9771 135.871 83.0791 135.431C83.0946 135.427 83.1023 135.424 83.1023 135.424C83.1023 135.424 88.551 155.507 111.899 155.249C127.802 155.076 124.719 135.424 124.719 135.424C124.719 135.424 124.912 135.462 125.274 135.539C129.867 136.514 161.758 143.519 174.339 153.08C178.173 155.993 180.924 162.197 182.901 169.595C182.986 169.911 183.067 170.235 183.152 170.555Z" fill="#6C63FF"/>
<mask id="path-5-inside-1_28_256" fill="white">
<path d="M178.978 30.0218C159.619 10.6627 133.878 0 106.5 0C79.1217 0 53.3812 10.6627 34.0217 30.0218C14.6624 49.3813 4 75.1218 4 102.5C4 127.489 12.8821 151.114 29.1588 169.769C30.7117 171.553 32.3339 173.29 34.0217 174.979C34.4186 175.375 34.8194 175.772 35.224 176.158C37.4744 178.339 39.8057 180.404 42.2141 182.346C42.2255 182.358 42.2333 182.366 42.2448 182.373C60.3982 197.035 82.8364 205 106.5 205C133.878 205 159.619 194.338 178.978 174.979C180.419 173.537 181.811 172.061 183.152 170.555C199.864 151.781 209 127.844 209 102.5C209 75.1218 198.338 49.3813 178.978 30.0218ZM182.901 169.595C179.868 173.044 176.608 176.289 173.14 179.298C166.563 185.02 159.241 189.906 151.346 193.798C148.575 195.166 145.735 196.411 142.83 197.525C131.543 201.856 119.293 204.229 106.5 204.229C94.1537 204.229 82.3162 202.018 71.361 197.972C66.8641 196.314 62.5175 194.346 58.3443 192.091C57.7316 191.76 57.1228 191.425 56.5178 191.082C53.3349 189.278 50.256 187.309 47.3005 185.182C43.0657 182.146 39.0735 178.789 35.3626 175.152C33.2819 173.113 31.2935 170.99 29.3939 168.782C14.0535 150.964 4.77068 127.798 4.77068 102.5C4.77068 46.4066 50.4063 0.770677 106.5 0.770677C162.594 0.770677 208.229 46.4066 208.229 102.5C208.229 128.187 198.661 151.677 182.901 169.595Z"/>
</mask>
<path d="M178.978 30.0218C159.619 10.6627 133.878 0 106.5 0C79.1217 0 53.3812 10.6627 34.0217 30.0218C14.6624 49.3813 4 75.1218 4 102.5C4 127.489 12.8821 151.114 29.1588 169.769C30.7117 171.553 32.3339 173.29 34.0217 174.979C34.4186 175.375 34.8194 175.772 35.224 176.158C37.4744 178.339 39.8057 180.404 42.2141 182.346C42.2255 182.358 42.2333 182.366 42.2448 182.373C60.3982 197.035 82.8364 205 106.5 205C133.878 205 159.619 194.338 178.978 174.979C180.419 173.537 181.811 172.061 183.152 170.555C199.864 151.781 209 127.844 209 102.5C209 75.1218 198.338 49.3813 178.978 30.0218ZM182.901 169.595C179.868 173.044 176.608 176.289 173.14 179.298C166.563 185.02 159.241 189.906 151.346 193.798C148.575 195.166 145.735 196.411 142.83 197.525C131.543 201.856 119.293 204.229 106.5 204.229C94.1537 204.229 82.3162 202.018 71.361 197.972C66.8641 196.314 62.5175 194.346 58.3443 192.091C57.7316 191.76 57.1228 191.425 56.5178 191.082C53.3349 189.278 50.256 187.309 47.3005 185.182C43.0657 182.146 39.0735 178.789 35.3626 175.152C33.2819 173.113 31.2935 170.99 29.3939 168.782C14.0535 150.964 4.77068 127.798 4.77068 102.5C4.77068 46.4066 50.4063 0.770677 106.5 0.770677C162.594 0.770677 208.229 46.4066 208.229 102.5C208.229 128.187 198.661 151.677 182.901 169.595Z" fill="#3F3D56"/>
<path d="M34.0217 30.0218L29.7791 25.7791L29.779 25.7792L34.0217 30.0218ZM29.1588 169.769L33.6844 165.829L33.6797 165.824L29.1588 169.769ZM34.0217 174.979L29.7786 179.221L29.7805 179.223L34.0217 174.979ZM35.224 176.158L39.3997 171.849L39.3808 171.831L39.3618 171.813L35.224 176.158ZM42.2141 182.346L46.4905 178.137L46.2485 177.891L45.98 177.675L42.2141 182.346ZM42.2448 182.373L46.0148 177.705L45.7747 177.511L45.516 177.343L42.2448 182.373ZM178.978 174.979L183.221 179.221L183.221 179.221L178.978 174.979ZM183.152 170.555L178.67 166.565L178.67 166.566L183.152 170.555ZM173.14 179.298L169.208 174.767L169.202 174.771L173.14 179.298ZM151.346 193.798L148.693 188.417L148.69 188.418L151.346 193.798ZM142.83 197.525L140.682 191.922L140.68 191.923L142.83 197.525ZM71.361 197.972L73.4398 192.343L73.4358 192.342L71.361 197.972ZM58.3443 192.091L55.4915 197.37L55.4925 197.37L58.3443 192.091ZM56.5178 191.082L53.5597 196.302L53.5598 196.302L56.5178 191.082ZM47.3005 185.182L50.8056 180.312L50.7967 180.306L47.3005 185.182ZM35.3626 175.152L39.5629 170.867L39.5615 170.866L35.3626 175.152ZM29.3939 168.782L33.942 164.869L33.9408 164.868L29.3939 168.782ZM183.221 25.7791C162.736 5.29485 135.47 -6 106.5 -6V6C132.287 6 156.501 16.0305 174.736 34.2644L183.221 25.7791ZM106.5 -6C77.5303 -6 50.2637 5.29486 29.7791 25.7791L38.2643 34.2645C56.4986 16.0305 80.7131 6 106.5 6V-6ZM29.779 25.7792C9.29455 46.2638 -2 73.5304 -2 102.5H10C10 76.7131 20.0302 52.4987 38.2643 34.2644L29.779 25.7792ZM-2 102.5C-2 128.937 7.40539 153.964 24.6378 173.713L33.6797 165.824C18.3587 148.265 10 126.042 10 102.5H-2ZM24.6331 173.708C26.2778 175.597 27.9944 177.436 29.7786 179.221L38.2648 170.736C36.6735 169.145 35.1456 167.508 33.6844 165.829L24.6331 173.708ZM29.7805 179.223C30.1861 179.628 30.6279 180.066 31.0861 180.503L39.3618 171.813C39.0108 171.478 38.651 171.122 38.2628 170.734L29.7805 179.223ZM31.0482 180.466C33.4263 182.771 35.8941 184.958 38.4481 187.017L45.98 177.675C43.7173 175.851 41.5225 173.906 39.3997 171.849L31.0482 180.466ZM37.9377 186.555C37.9395 186.556 37.9363 186.553 37.9387 186.556C37.9393 186.556 37.9402 186.557 37.9413 186.558C37.9435 186.56 37.9472 186.564 37.9517 186.569C37.9603 186.577 37.976 186.593 37.9955 186.613C38.0334 186.65 38.1025 186.718 38.1917 186.799C38.3914 186.981 38.6509 187.193 38.9737 187.403L45.516 177.343C46.1392 177.748 46.571 178.219 46.4905 178.137L37.9377 186.555ZM38.4748 187.041C57.6986 202.567 81.4684 211 106.5 211V199C84.2045 199 63.0977 191.503 46.0148 177.705L38.4748 187.041ZM106.5 211C135.47 211 162.736 199.706 183.221 179.221L174.736 170.736C156.502 188.97 132.287 199 106.5 199V211ZM183.221 179.221C184.745 177.697 186.216 176.136 187.633 174.544L178.67 166.566C177.405 167.987 176.094 169.378 174.736 170.736L183.221 179.221ZM187.633 174.544C205.325 154.67 215 129.313 215 102.5H203C203 126.375 194.402 148.892 178.67 166.565L187.633 174.544ZM215 102.5C215 73.5304 203.706 46.2638 183.221 25.7791L174.736 34.2644C192.97 52.4987 203 76.7131 203 102.5H215ZM178.395 165.633C175.538 168.882 172.47 171.936 169.208 174.767L177.073 183.83C180.747 180.641 184.199 177.206 187.407 173.557L178.395 165.633ZM169.202 174.771C163.012 180.157 156.122 184.755 148.693 188.417L153.999 199.18C162.361 195.058 170.114 189.884 177.078 183.825L169.202 174.771ZM148.69 188.418C146.083 189.705 143.413 190.875 140.682 191.922L144.977 203.127C148.058 201.946 151.067 200.627 154.002 199.179L148.69 188.418ZM140.68 191.923C130.068 195.995 118.546 198.229 106.5 198.229V210.229C120.04 210.229 133.018 207.716 144.979 203.126L140.68 191.923ZM106.5 198.229C94.8751 198.229 83.7407 196.148 73.4398 192.343L69.2823 203.6C80.8916 207.888 93.4324 210.229 106.5 210.229V198.229ZM73.4358 192.342C69.2087 190.784 65.1216 188.933 61.1961 186.812L55.4925 197.37C59.9134 199.758 64.5194 201.845 69.2863 203.602L73.4358 192.342ZM61.197 186.813C60.6119 186.496 60.039 186.181 59.4757 185.862L53.5598 196.302C54.2066 196.669 54.8512 197.024 55.4915 197.37L61.197 186.813ZM59.4758 185.862C56.4783 184.163 53.5823 182.311 50.8056 180.312L43.7955 190.052C46.9297 192.308 50.1914 194.393 53.5597 196.302L59.4758 185.862ZM50.7967 180.306C46.8121 177.449 43.0552 174.291 39.5629 170.867L31.1624 179.436C35.0918 183.288 39.3192 186.842 43.8043 190.058L50.7967 180.306ZM39.5615 170.866C37.6037 168.948 35.7318 166.949 33.942 164.869L24.8458 172.696C26.8553 175.031 28.96 177.279 31.1638 179.438L39.5615 170.866ZM33.9408 164.868C19.4991 148.093 10.7707 126.302 10.7707 102.5H-1.22932C-1.22932 129.293 8.60795 153.835 24.8469 172.697L33.9408 164.868ZM10.7707 102.5C10.7707 49.7202 53.72 6.77068 106.5 6.77068V-5.22932C47.0925 -5.22932 -1.22932 43.0929 -1.22932 102.5H10.7707ZM106.5 6.77068C159.28 6.77068 202.229 49.7202 202.229 102.5H214.229C214.229 43.0929 165.907 -5.22932 106.5 -5.22932V6.77068ZM202.229 102.5C202.229 126.669 193.233 148.764 178.396 165.632L187.406 173.558C204.09 154.59 214.229 129.705 214.229 102.5H202.229Z" fill="black" mask="url(#path-5-inside-1_28_256)"/>
</g>
<defs>
<filter id="filter0_d_28_256" x="0" y="0" width="213" height="213" filterUnits="userSpaceOnUse" color-interpolation-filters="sRGB">
<feFlood flood-opacity="0" result="BackgroundImageFix"/>
<feColorMatrix in="SourceAlpha" type="matrix" values="0 0 0 0 0 0 0 0 0 0 0 0 0 0 0 0 0 0 127 0" result="hardAlpha"/>
<feOffset dy="4"/>
<feGaussianBlur stdDeviation="2"/>
<feComposite in2="hardAlpha" operator="out"/>
<feColorMatrix type="matrix" values="0 0 0 0 0 0 0 0 0 0 0 0 0 0 0 0 0 0 0.25 0"/>
<feBlend mode="normal" in2="BackgroundImageFix" result="effect1_dropShadow_28_256"/>
<feBlend mode="normal" in="SourceGraphic" in2="effect1_dropShadow_28_256" result="shape"/>
</filter>
<clipPath id="clip0_28_256">
<rect width="205" height="205" fill="white" transform="translate(4)"/>
</clipPath>
</defs>
</svg>
