<svg width="166" height="166" viewBox="0 0 166 166" fill="none" xmlns="http://www.w3.org/2000/svg">
<path d="M82.7438 92.1767C105.804 92.1767 124.509 73.3063 124.509 50.0414C124.509 26.7765 105.804 8.03528 82.7438 8.03528C59.6831 8.03528 40.9783 26.9057 40.9783 50.0414C40.9783 73.177 59.6831 92.1767 82.7438 92.1767V92.1767ZM82.7438 19.0215C99.6549 19.0215 113.491 32.9804 113.491 50.0414C113.491 67.1023 99.6549 81.0613 82.7438 81.0613C65.8326 81.0613 51.9962 67.1023 51.9962 50.0414C51.9962 32.9804 65.8326 19.0215 82.7438 19.0215Z" fill="black"/>
<path d="M10.487 157.965H155.513C158.588 157.965 161.022 155.509 161.022 152.407C161.022 123.326 137.577 99.5439 108.623 99.5439H57.3771C28.5512 99.5439 4.97803 123.197 4.97803 152.407C4.97803 155.509 7.41221 157.965 10.487 157.965V157.965ZM57.3771 110.659H108.623C129.634 110.659 146.929 126.428 149.62 146.849H16.3803C19.0707 126.557 36.3662 110.659 57.3771 110.659Z" fill="black"/>
</svg>
