<svg width="166" height="166" viewBox="0 0 166 166" fill="none" xmlns="http://www.w3.org/2000/svg">
<path d="M1.99878 112.86L53.1397 164.001L164.001 53.1396L112.86 1.99869L1.99878 112.86ZM53.1397 154.618L11.3816 112.86L18.3026 105.939L34.2049 121.842L38.8963 117.15L22.994 101.248L34.8917 89.3503L44.1583 98.617L48.8497 93.9256L39.5831 84.6589L51.4808 72.7612L67.3831 88.6635L72.0745 83.9721L56.1722 68.0698L68.0699 56.1721L77.3366 65.4388L82.028 60.7474L72.7613 51.4807L84.659 39.583L100.561 55.4853L105.253 50.7939L89.3504 34.8916L101.248 22.9939L110.515 32.2605L115.206 27.5691L105.94 18.3025L112.86 11.3815L154.619 53.1396L53.1397 154.618Z" fill="black"/>
</svg>
